<svg height="457pt" viewBox="0 -61 457.14289 457" width="457pt" xmlns="http://www.w3.org/2000/svg"><path d="m9.144531 9.234375h438.855469v316.320313h-438.855469zm0 0" fill="#ffd766"/><path d="m448 334.695312h-438.855469c-5.050781 0-9.144531-4.09375-9.144531-9.140624v-316.316407c0-5.050781 4.09375-9.144531 9.144531-9.144531h438.855469c5.050781 0 9.144531 4.09375 9.144531 9.144531v316.316407c0 5.046874-4.09375 9.140624-9.144531 9.140624zm-429.714844-18.285156h420.570313v-298.03125h-420.570313zm0 0" fill="#2a3d4f"/><path d="m448 9.210938-219.554688 219.304687-219.300781-219.304687zm0 0" fill="#ffd766"/><path d="m228.445312 237.65625c-2.339843 0-4.675781-.894531-6.464843-2.679688l-219.300781-219.296874c-2.617188-2.617188-3.398438-6.546876-1.984376-9.964844 1.417969-3.414063 4.75-5.6445315 8.449219-5.6445315h438.855469c3.699219 0 7.03125 2.2304685 8.445312 5.6484375 1.417969 3.414062.636719 7.347656-1.984374 9.964844l-219.554688 219.296875c-1.78125 1.78125-4.121094 2.675781-6.460938 2.675781zm-197.230468-219.300781 197.234375 197.234375 197.460937-197.234375zm0 0" fill="#2a3d4f"/></svg>